{"buffers":[{"uri":"optimized-scene.bin","byteLength":7791324}],"asset":{"version":"2.0","generator":"gltfpack 0.15","extras":{"author":"SDC (https://sketchfab.com/3Duae)","license":"CC-BY-4.0 (http://creativecommons.org/licenses/by/4.0/)","source":"https://sketchfab.com/3d-models/lamborghini-aventador-svj-sdc-free-784e4656aca649cca55d6b18740a19b2","title":"Lamborghini Aventador SVJ SDC ( FREE )"}},"extensionsUsed":["KHR_mesh_quantization","KHR_texture_transform"],"extensionsRequired":["KHR_mesh_quantization"],"bufferViews":[{"buffer":0,"byteOffset":0,"byteLength":1121060,"byteStride":4,"target":34962},{"buffer":0,"byteOffset":1121060,"byteLength":2242120,"byteStride":8,"target":34962},{"buffer":0,"byteOffset":3363180,"byteLength":2072610,"target":34963},{"buffer":0,"byteOffset":5435792,"byteLength":400864,"byteStride":4,"target":34962},{"buffer":0,"byteOffset":5836656,"byteLength":1954668,"target":34963}],"accessors":[{"bufferView":0,"byteOffset":0,"componentType":5120,"count":23795,"type":"VEC3","normalized":true},{"bufferView":1,"byteOffset":0,"componentType":5123,"count":23795,"type":"VEC3","min":[304,361,195],"max":[7236,3793,16250]},{"bufferView":2,"byteOffset":0,"componentType":5123,"count":132069,"type":"SCALAR"},{"bufferView":0,"byteOffset":95180,"componentType":5120,"count":94044,"type":"VEC3","normalized":true},{"bufferView":1,"byteOffset":190360,"componentType":5123,"count":94044,"type":"VEC3","min":[0,316,0],"max":[7541,3792,16383]},{"bufferView":3,"byteOffset":0,"componentType":5123,"count":94044,"type":"VEC2"},{"bufferView":4,"byteOffset":0,"componentType":5125,"count":488667,"type":"SCALAR"},{"bufferView":0,"byteOffset":471356,"componentType":5120,"count":3552,"type":"VEC3","normalized":true},{"bufferView":1,"byteOffset":942712,"componentType":5123,"count":3552,"type":"VEC3","min":[307,760,567],"max":[7232,3647,15927]},{"bufferView":2,"byteOffset":264138,"componentType":5123,"count":19227,"type":"SCALAR"},{"bufferView":0,"byteOffset":485564,"componentType":5120,"count":1284,"type":"VEC3","normalized":true},{"bufferView":1,"byteOffset":971128,"componentType":5123,"count":1284,"type":"VEC3","min":[38,1388,1914],"max":[7502,2940,13917]},{"bufferView":2,"byteOffset":302592,"componentType":5123,"count":6972,"type":"SCALAR"},{"bufferView":0,"byteOffset":490700,"componentType":5120,"count":50,"type":"VEC3","normalized":true},{"bufferView":1,"byteOffset":981400,"componentType":5123,"count":50,"type":"VEC3","min":[847,1740,1640],"max":[6691,2441,1643]},{"bufferView":2,"byteOffset":316536,"componentType":5123,"count":192,"type":"SCALAR"},{"bufferView":0,"byteOffset":490900,"componentType":5120,"count":681,"type":"VEC3","normalized":true},{"bufferView":1,"byteOffset":981800,"componentType":5123,"count":681,"type":"VEC3","min":[898,1633,297],"max":[6642,3551,15374]},{"bufferView":2,"byteOffset":316920,"componentType":5123,"count":3078,"type":"SCALAR"},{"bufferView":0,"byteOffset":493624,"componentType":5120,"count":316,"type":"VEC3","normalized":true},{"bufferView":1,"byteOffset":987248,"componentType":5123,"count":316,"type":"VEC3","min":[391,1389,1913],"max":[7147,2411,13916]},{"bufferView":2,"byteOffset":323076,"componentType":5123,"count":1584,"type":"SCALAR"},{"bufferView":0,"byteOffset":494888,"componentType":5120,"count":1832,"type":"VEC3","normalized":true},{"bufferView":1,"byteOffset":989776,"componentType":5123,"count":1832,"type":"VEC3","min":[400,461,484],"max":[7140,3575,12998]},{"bufferView":2,"byteOffset":326244,"componentType":5123,"count":10284,"type":"SCALAR"},{"bufferView":0,"byteOffset":502216,"componentType":5120,"count":1404,"type":"VEC3","normalized":true},{"bufferView":1,"byteOffset":1004432,"componentType":5123,"count":1404,"type":"VEC3","min":[1895,1655,13467],"max":[5648,2287,15067]},{"bufferView":2,"byteOffset":346812,"componentType":5123,"count":8100,"type":"SCALAR"},{"bufferView":0,"byteOffset":507832,"componentType":5120,"count":4068,"type":"VEC3","normalized":true},{"bufferView":1,"byteOffset":1015664,"componentType":5123,"count":4068,"type":"VEC3","min":[3670,1366,15736],"max":[3874,1514,15931]},{"bufferView":2,"byteOffset":363012,"componentType":5123,"count":21606,"type":"SCALAR"},{"bufferView":0,"byteOffset":524104,"componentType":5120,"count":126,"type":"VEC3","normalized":true},{"bufferView":1,"byteOffset":1048208,"componentType":5123,"count":126,"type":"VEC3","min":[1830,1220,13469],"max":[5713,2166,15142]},{"bufferView":2,"byteOffset":406224,"componentType":5123,"count":660,"type":"SCALAR"},{"bufferView":0,"byteOffset":524608,"componentType":5120,"count":112,"type":"VEC3","normalized":true},{"bufferView":1,"byteOffset":1049216,"componentType":5123,"count":112,"type":"VEC3","min":[744,843,8207],"max":[6797,1033,10161]},{"bufferView":2,"byteOffset":407544,"componentType":5123,"count":492,"type":"SCALAR"},{"bufferView":0,"byteOffset":525056,"componentType":5120,"count":4648,"type":"VEC3","normalized":true},{"bufferView":1,"byteOffset":1050112,"componentType":5123,"count":4648,"type":"VEC3","min":[768,1776,315],"max":[6770,3466,1561]},{"bufferView":2,"byteOffset":408528,"componentType":5123,"count":25311,"type":"SCALAR"},{"bufferView":0,"byteOffset":543648,"componentType":5120,"count":30,"type":"VEC3","normalized":true},{"bufferView":1,"byteOffset":1087296,"componentType":5123,"count":30,"type":"VEC3","min":[360,2064,4703],"max":[7179,2152,4863]},{"bufferView":2,"byteOffset":459150,"componentType":5123,"count":96,"type":"SCALAR"},{"bufferView":0,"byteOffset":543768,"componentType":5120,"count":30,"type":"VEC3","normalized":true},{"bufferView":1,"byteOffset":1087536,"componentType":5123,"count":30,"type":"VEC3","min":[339,2042,4832],"max":[7201,2146,5120]},{"bufferView":2,"byteOffset":459342,"componentType":5123,"count":96,"type":"SCALAR"},{"bufferView":0,"byteOffset":543888,"componentType":5120,"count":20,"type":"VEC3","normalized":true},{"bufferView":1,"byteOffset":1087776,"componentType":5123,"count":20,"type":"VEC3","min":[334,2037,5060],"max":[7206,2127,5214]},{"bufferView":2,"byteOffset":459534,"componentType":5123,"count":48,"type":"SCALAR"},{"bufferView":0,"byteOffset":543968,"componentType":5120,"count":2204,"type":"VEC3","normalized":true},{"bufferView":1,"byteOffset":1087936,"componentType":5123,"count":2204,"type":"VEC3","min":[905,2353,554],"max":[6636,3579,12994]},{"bufferView":2,"byteOffset":459630,"componentType":5123,"count":12966,"type":"SCALAR"},{"bufferView":0,"byteOffset":552784,"componentType":5120,"count":6172,"type":"VEC3","normalized":true},{"bufferView":1,"byteOffset":1105568,"componentType":5123,"count":6172,"type":"VEC3","min":[856,1560,487],"max":[6684,2870,15181]},{"bufferView":3,"byteOffset":376176,"componentType":5123,"count":6172,"type":"VEC2"},{"bufferView":2,"byteOffset":485562,"componentType":5123,"count":27354,"type":"SCALAR"},{"bufferView":0,"byteOffset":577472,"componentType":5120,"count":26980,"type":"VEC3","normalized":true},{"bufferView":1,"byteOffset":1154944,"componentType":5123,"count":26980,"type":"VEC3","min":[901,1624,661],"max":[6639,2841,14621]},{"bufferView":2,"byteOffset":540270,"componentType":5123,"count":146772,"type":"SCALAR"},{"bufferView":0,"byteOffset":685392,"componentType":5120,"count":2052,"type":"VEC3","normalized":true},{"bufferView":1,"byteOffset":1370784,"componentType":5123,"count":2052,"type":"VEC3","min":[1635,1653,14671],"max":[5903,1884,14920]},{"bufferView":2,"byteOffset":833814,"componentType":5123,"count":8352,"type":"SCALAR"},{"bufferView":0,"byteOffset":693600,"componentType":5120,"count":384,"type":"VEC3","normalized":true},{"bufferView":1,"byteOffset":1387200,"componentType":5123,"count":384,"type":"VEC3","min":[1699,1776,14585],"max":[5839,1885,14791]},{"bufferView":2,"byteOffset":850518,"componentType":5123,"count":2064,"type":"SCALAR"},{"bufferView":0,"byteOffset":695136,"componentType":5120,"count":964,"type":"VEC3","normalized":true},{"bufferView":1,"byteOffset":1390272,"componentType":5123,"count":964,"type":"VEC3","min":[869,1573,488],"max":[6672,2871,15178]},{"bufferView":2,"byteOffset":854646,"componentType":5123,"count":5076,"type":"SCALAR"},{"bufferView":0,"byteOffset":698992,"componentType":5120,"count":116,"type":"VEC3","normalized":true},{"bufferView":1,"byteOffset":1397984,"componentType":5123,"count":116,"type":"VEC3","min":[1062,1584,14033],"max":[6476,2051,15105]},{"bufferView":2,"byteOffset":864798,"componentType":5123,"count":432,"type":"SCALAR"},{"bufferView":0,"byteOffset":699456,"componentType":5120,"count":1314,"type":"VEC3","normalized":true},{"bufferView":1,"byteOffset":1398912,"componentType":5123,"count":1314,"type":"VEC3","min":[396,313,1994],"max":[7144,2543,15851]},{"bufferView":2,"byteOffset":865662,"componentType":5123,"count":7356,"type":"SCALAR"},{"bufferView":0,"byteOffset":704712,"componentType":5120,"count":40484,"type":"VEC3","normalized":true},{"bufferView":1,"byteOffset":1409424,"componentType":5123,"count":40484,"type":"VEC3","min":[186,189,2277],"max":[7316,2225,13357]},{"bufferView":2,"byteOffset":880374,"componentType":5123,"count":239472,"type":"SCALAR"},{"bufferView":0,"byteOffset":866648,"componentType":5120,"count":3456,"type":"VEC3","normalized":true},{"bufferView":1,"byteOffset":1733296,"componentType":5123,"count":3456,"type":"VEC3","min":[163,0,2087],"max":[7338,2418,13504]},{"bufferView":2,"byteOffset":1359318,"componentType":5123,"count":19584,"type":"SCALAR"},{"bufferView":0,"byteOffset":880472,"componentType":5120,"count":834,"type":"VEC3","normalized":true},{"bufferView":1,"byteOffset":1760944,"componentType":5123,"count":834,"type":"VEC3","min":[584,777,2848],"max":[6929,1657,12465]},{"bufferView":2,"byteOffset":1398486,"componentType":5123,"count":4464,"type":"SCALAR"},{"bufferView":0,"byteOffset":883808,"componentType":5120,"count":4824,"type":"VEC3","normalized":true},{"bufferView":1,"byteOffset":1767616,"componentType":5123,"count":4824,"type":"VEC3","min":[562,418,3176],"max":[6979,1781,12986]},{"bufferView":2,"byteOffset":1407414,"componentType":5123,"count":26418,"type":"SCALAR"},{"bufferView":0,"byteOffset":903104,"componentType":5120,"count":1222,"type":"VEC3","normalized":true},{"bufferView":1,"byteOffset":1806208,"componentType":5123,"count":1222,"type":"VEC3","min":[6707,414,11595],"max":[7063,1556,12123]},{"bufferView":2,"byteOffset":1460250,"componentType":5123,"count":6918,"type":"SCALAR"},{"bufferView":0,"byteOffset":907992,"componentType":5120,"count":1222,"type":"VEC3","normalized":true},{"bufferView":1,"byteOffset":1815984,"componentType":5123,"count":1222,"type":"VEC3","min":[712,415,11563],"max":[988,1557,12098]},{"bufferView":2,"byteOffset":1474086,"componentType":5123,"count":6918,"type":"SCALAR"},{"bufferView":0,"byteOffset":912880,"componentType":5120,"count":4790,"type":"VEC3","normalized":true},{"bufferView":1,"byteOffset":1825760,"componentType":5123,"count":4790,"type":"VEC3","min":[823,484,2561],"max":[6717,1952,4027]},{"bufferView":2,"byteOffset":1487922,"componentType":5123,"count":26274,"type":"SCALAR"},{"bufferView":0,"byteOffset":932040,"componentType":5120,"count":1059,"type":"VEC3","normalized":true},{"bufferView":1,"byteOffset":1864080,"componentType":5123,"count":1059,"type":"VEC3","min":[6576,855,3619],"max":[6859,1940,4176]},{"bufferView":2,"byteOffset":1540470,"componentType":5123,"count":5898,"type":"SCALAR"},{"bufferView":0,"byteOffset":936276,"componentType":5120,"count":36,"type":"VEC3","normalized":true},{"bufferView":1,"byteOffset":1872552,"componentType":5123,"count":36,"type":"VEC3","min":[883,2489,826],"max":[6658,2619,1443]},{"bufferView":2,"byteOffset":1552266,"componentType":5123,"count":72,"type":"SCALAR"},{"bufferView":0,"byteOffset":936420,"componentType":5120,"count":630,"type":"VEC3","normalized":true},{"bufferView":1,"byteOffset":1872840,"componentType":5123,"count":630,"type":"VEC3","min":[903,2493,652],"max":[6638,2844,1350]},{"bufferView":2,"byteOffset":1552410,"componentType":5123,"count":3012,"type":"SCALAR"},{"bufferView":0,"byteOffset":938940,"componentType":5120,"count":22998,"type":"VEC3","normalized":true},{"bufferView":1,"byteOffset":1877880,"componentType":5123,"count":22998,"type":"VEC3","min":[883,2488,656],"max":[6658,2842,1366]},{"bufferView":2,"byteOffset":1558434,"componentType":5123,"count":137484,"type":"SCALAR"},{"bufferView":0,"byteOffset":1030932,"componentType":5120,"count":936,"type":"VEC3","normalized":true},{"bufferView":1,"byteOffset":2061864,"componentType":5123,"count":936,"type":"VEC3","min":[913,2625,711],"max":[6627,2831,1342]},{"bufferView":2,"byteOffset":1833402,"componentType":5123,"count":3672,"type":"SCALAR"},{"bufferView":0,"byteOffset":1034676,"componentType":5120,"count":17280,"type":"VEC3","normalized":true},{"bufferView":1,"byteOffset":2069352,"componentType":5123,"count":17280,"type":"VEC3","min":[916,2502,670],"max":[6624,2814,1292]},{"bufferView":2,"byteOffset":1840746,"componentType":5123,"count":90720,"type":"SCALAR"},{"bufferView":0,"byteOffset":1103796,"componentType":5120,"count":4316,"type":"VEC3","normalized":true},{"bufferView":1,"byteOffset":2207592,"componentType":5123,"count":4316,"type":"VEC3","min":[1945,2531,762],"max":[5596,2834,835]},{"bufferView":2,"byteOffset":2022186,"componentType":5123,"count":25212,"type":"SCALAR"}],"images":[{"uri":"textures/CARBONE_baseColor.jpeg"}],"textures":[{"source":0}],"materials":[{"name":"material_0","pbrMetallicRoughness":{"baseColorFactor":[0.347151071,0.347151071,0.347151071,1],"metallicFactor":0.810373068,"roughnessFactor":0.901575685},"doubleSided":true},{"name":"CARROSSERIE","pbrMetallicRoughness":{"baseColorFactor":[1,0.17172344,0,1],"metallicFactor":0.719170511,"roughnessFactor":0.57932651},"doubleSided":true},{"name":"CARBONE","pbrMetallicRoughness":{"baseColorTexture":{"index":0,"texCoord":0,"extensions":{"KHR_texture_transform":{"offset":[-94.6999664,-116.115135],"scale":[0.0382384919,0.0345015414]}}},"roughnessFactor":0.61362499},"doubleSided":true},{"name":"MetalDark","pbrMetallicRoughness":{"baseColorFactor":[0.0470587984,0.0470587984,0.0470587984,1],"roughnessFactor":0.675099015},"doubleSided":true},{"name":"Chrome","pbrMetallicRoughness":{"baseColorFactor":[0.572548985,0.572548985,0.572548985,1],"roughnessFactor":0.800000012},"doubleSided":true},{"name":"ExteriorDetailTex","pbrMetallicRoughness":{"baseColorFactor":[0.205941364,0.205941364,0.205941364,1],"metallicFactor":0.676609278,"roughnessFactor":0.200000003},"doubleSided":true},{"name":"GLASS","pbrMetallicRoughness":{"baseColorFactor":[0.00462366687,0.00479251472,0.00509761507,1],"metallicFactor":0.0625117794,"roughnessFactor":0.0564316064},"doubleSided":true},{"name":"MetalExhaustTextured","pbrMetallicRoughness":{"baseColorFactor":[0.222669363,0.222669363,0.222669363,1],"roughnessFactor":0.831821024},"doubleSided":true},{"name":"GlassLights","pbrMetallicRoughness":{"baseColorFactor":[0.0156862997,0.0156862997,0.0156862997,0.384760946],"roughnessFactor":0},"alphaMode":"BLEND","doubleSided":true},{"name":"Undercarriage","pbrMetallicRoughness":{"baseColorFactor":[0,0,0,1],"roughnessFactor":0.85857898},"doubleSided":true},{"name":"intPlasticDkPlain","pbrMetallicRoughness":{"baseColorFactor":[0.0980392024,0.0980392024,0.0980392024,1],"roughnessFactor":0.800000012},"doubleSided":true},{"name":"MetalGoldenLogo","pbrMetallicRoughness":{"baseColorFactor":[0.627451003,0.380391985,0.0588234998,1],"roughnessFactor":0.472196996},"doubleSided":true},{"name":"intAlcantara","pbrMetallicRoughness":{"roughnessFactor":0.600000024},"doubleSided":true},{"name":"intTexButtonsGlossy","pbrMetallicRoughness":{"roughnessFactor":0.831821024},"doubleSided":true},{"name":"Aluminum","pbrMetallicRoughness":{"baseColorFactor":[0.450980008,0.450980008,0.450980008,1],"metallicFactor":0.798212707,"roughnessFactor":0.800000012},"doubleSided":true},{"name":"Material.001","pbrMetallicRoughness":{"baseColorFactor":[0,0.341745585,0.0217312034,1],"metallicFactor":0.300242007,"roughnessFactor":0.320823014},"doubleSided":true},{"name":"Material.002","pbrMetallicRoughness":{"metallicFactor":0,"roughnessFactor":0.5},"doubleSided":true},{"name":"Material.003","pbrMetallicRoughness":{"baseColorFactor":[1,0,0,1],"metallicFactor":0.387409002,"roughnessFactor":0.315981001},"doubleSided":true},{"name":"HdLightsLens","pbrMetallicRoughness":{"baseColorFactor":[0.333332986,0.325489998,0.313726008,1],"roughnessFactor":0.85857898},"doubleSided":true},{"name":"LightEmissiveWhite","pbrMetallicRoughness":{"roughnessFactor":0.85857898},"emissiveFactor":[1,1,1],"doubleSided":true},{"name":"WheelMetalBlack","pbrMetallicRoughness":{"baseColorFactor":[0.0470587984,0.0470587984,0.0470587984,1],"roughnessFactor":0.767811894},"doubleSided":true},{"name":"WheelTireBump","pbrMetallicRoughness":{"baseColorFactor":[0.0470587984,0.0470587984,0.0470587984,1],"roughnessFactor":0.688769639},"doubleSided":true},{"name":"Material.006","pbrMetallicRoughness":{"baseColorFactor":[0.0211709999,0.0211709999,0.0211709999,1],"metallicFactor":0,"roughnessFactor":0.5},"doubleSided":true},{"name":"Material.005","pbrMetallicRoughness":{"baseColorFactor":[0.182727367,0.182727367,0.182727367,1],"metallicFactor":0.555005789,"roughnessFactor":0.652288556},"doubleSided":true},{"name":"Material.004","pbrMetallicRoughness":{"baseColorFactor":[0.783914447,0.00123048585,0.00123048585,1],"metallicFactor":0.358354002,"roughnessFactor":0.5},"doubleSided":true},{"name":"MetalRedEngine","pbrMetallicRoughness":{"baseColorFactor":[0.607842982,0.0313725993,0.0313725993,1],"roughnessFactor":0.675099015},"doubleSided":true},{"name":"GLS_MR","pbrMetallicRoughness":{"baseColorFactor":[0.0601814985,0.364704996,0.35452801,1],"roughnessFactor":0.76215899},"doubleSided":true},{"name":"GlassRedLights","pbrMetallicRoughness":{"baseColorFactor":[1,0,0.0796277672,1],"roughnessFactor":0.434314996},"emissiveFactor":[1,0,0],"doubleSided":true},{"name":"GlassOrangeLights","pbrMetallicRoughness":{"baseColorFactor":[0.572548985,0.227450997,0,1],"roughnessFactor":0},"doubleSided":true},{"name":"GlassWhite","pbrMetallicRoughness":{"baseColorFactor":[0.909803987,0.909803987,0.909803987,1],"roughnessFactor":0.85857898},"doubleSided":true}],"meshes":[{"primitives":[{"attributes":{"NORMAL":0,"POSITION":1},"mode":4,"indices":2,"material":1},{"attributes":{"NORMAL":3,"POSITION":4,"TEXCOORD_0":5},"mode":4,"indices":6,"material":2},{"attributes":{"NORMAL":7,"POSITION":8},"mode":4,"indices":9,"material":3},{"attributes":{"NORMAL":10,"POSITION":11},"mode":4,"indices":12,"material":4},{"attributes":{"NORMAL":13,"POSITION":14},"mode":4,"indices":15,"material":5},{"attributes":{"NORMAL":16,"POSITION":17},"mode":4,"indices":18,"material":7},{"attributes":{"NORMAL":19,"POSITION":20},"mode":4,"indices":21,"material":8},{"attributes":{"NORMAL":22,"POSITION":23},"mode":4,"indices":24,"material":9},{"attributes":{"NORMAL":25,"POSITION":26},"mode":4,"indices":27,"material":10},{"attributes":{"NORMAL":28,"POSITION":29},"mode":4,"indices":30,"material":11},{"attributes":{"NORMAL":31,"POSITION":32},"mode":4,"indices":33,"material":12},{"attributes":{"NORMAL":34,"POSITION":35},"mode":4,"indices":36,"material":13},{"attributes":{"NORMAL":37,"POSITION":38},"mode":4,"indices":39,"material":14},{"attributes":{"NORMAL":40,"POSITION":41},"mode":4,"indices":42,"material":15},{"attributes":{"NORMAL":43,"POSITION":44},"mode":4,"indices":45,"material":16},{"attributes":{"NORMAL":46,"POSITION":47},"mode":4,"indices":48,"material":17},{"attributes":{"NORMAL":49,"POSITION":50},"mode":4,"indices":51,"material":6},{"attributes":{"NORMAL":52,"POSITION":53,"TEXCOORD_0":54},"mode":4,"indices":55,"material":2},{"attributes":{"NORMAL":56,"POSITION":57},"mode":4,"indices":58,"material":4},{"attributes":{"NORMAL":59,"POSITION":60},"mode":4,"indices":61,"material":18},{"attributes":{"NORMAL":62,"POSITION":63},"mode":4,"indices":64,"material":7},{"attributes":{"NORMAL":65,"POSITION":66},"mode":4,"indices":67,"material":8},{"attributes":{"NORMAL":68,"POSITION":69},"mode":4,"indices":70,"material":19},{"attributes":{"NORMAL":71,"POSITION":72},"mode":4,"indices":73,"material":9},{"attributes":{"NORMAL":74,"POSITION":75},"mode":4,"indices":76,"material":20},{"attributes":{"NORMAL":77,"POSITION":78},"mode":4,"indices":79,"material":21},{"attributes":{"NORMAL":80,"POSITION":81},"mode":4,"indices":82,"material":22},{"attributes":{"NORMAL":83,"POSITION":84},"mode":4,"indices":85,"material":23},{"attributes":{"NORMAL":86,"POSITION":87},"mode":4,"indices":88,"material":24},{"attributes":{"NORMAL":89,"POSITION":90},"mode":4,"indices":91,"material":25},{"attributes":{"NORMAL":92,"POSITION":93},"mode":4,"indices":94,"material":0},{"attributes":{"NORMAL":95,"POSITION":96},"mode":4,"indices":97,"material":24},{"attributes":{"NORMAL":98,"POSITION":99},"mode":4,"indices":100,"material":26},{"attributes":{"NORMAL":101,"POSITION":102},"mode":4,"indices":103,"material":3},{"attributes":{"NORMAL":104,"POSITION":105},"mode":4,"indices":106,"material":27},{"attributes":{"NORMAL":107,"POSITION":108},"mode":4,"indices":109,"material":28},{"attributes":{"NORMAL":110,"POSITION":111},"mode":4,"indices":112,"material":29},{"attributes":{"NORMAL":113,"POSITION":114},"mode":4,"indices":115,"material":14}]}],"nodes":[{"mesh":0,"translation":[-1.11705768,-0.00247232057,-2.42625475],"scale":[0.000296278129,0.000296278129,0.000296278129]}],"scenes":[{"name":"Sketchfab_Scene","nodes":[0]}],"scene":0}